<svg id="svg" version="1.1" xmlns="http://www.w3.org/2000/svg" xmlns:xlink="http://www.w3.org/1999/xlink" width="400" height="409.30232558139534" viewBox="0, 0, 400,409.30232558139534"><g id="svgg"><path id="path0" d="M0.000 204.600 L 0.000 409.200 200.000 409.200 L 400.000 409.200 400.000 204.600 L 400.000 0.000 200.000 0.000 L 0.000 0.000 0.000 204.600 M292.400 26.803 C 304.725 27.543,309.901 28.637,314.000 31.366 C 316.867 33.275,317.989 33.731,324.946 35.811 C 330.864 37.581,332.435 38.370,335.200 40.958 C 336.410 42.091,338.210 43.357,339.200 43.770 C 344.497 45.984,345.441 46.548,348.138 49.113 C 349.712 50.611,352.273 52.857,353.829 54.105 C 357.328 56.912,363.300 63.047,365.679 66.278 C 366.659 67.610,368.441 69.667,369.638 70.850 C 371.780 72.966,372.395 73.979,374.737 79.255 C 375.429 80.813,376.681 82.686,377.766 83.787 C 380.417 86.476,380.873 87.523,384.158 98.451 C 384.778 100.515,385.855 102.889,386.837 104.361 C 389.138 107.806,390.188 111.553,391.274 120.200 C 391.892 125.121,392.198 272.972,391.629 291.800 C 391.070 310.294,389.897 317.908,386.939 322.244 C 385.363 324.554,384.253 327.284,382.873 332.248 C 381.180 338.337,380.090 340.621,377.484 343.542 C 375.850 345.373,374.847 347.025,373.734 349.721 C 372.480 352.756,371.745 353.890,369.534 356.200 C 368.061 357.740,366.009 360.137,364.974 361.526 C 362.377 365.014,356.005 371.385,352.400 374.099 C 350.750 375.341,348.230 377.496,346.800 378.888 C 344.668 380.963,343.538 381.691,340.521 382.936 C 337.822 384.049,336.175 385.048,334.342 386.684 C 331.412 389.298,329.114 390.391,323.048 392.059 C 318.961 393.182,316.968 394.016,311.400 396.932 C 306.605 399.442,300.053 400.311,282.000 400.831 C 261.927 401.409,115.925 401.088,110.800 400.455 C 102.678 399.451,98.763 398.335,95.129 395.986 C 93.735 395.084,91.132 393.923,89.219 393.348 C 78.275 390.060,77.066 389.528,74.317 386.793 C 72.861 385.345,71.423 384.476,68.311 383.162 C 64.848 381.701,63.757 381.001,61.210 378.606 C 59.554 377.049,57.199 375.021,55.977 374.098 C 52.983 371.840,47.625 366.496,44.879 363.030 C 43.646 361.473,41.440 358.940,39.976 357.400 C 37.245 354.526,36.211 352.862,34.784 349.049 C 34.258 347.642,33.060 345.851,31.430 344.034 C 28.671 340.956,27.891 339.264,25.638 331.466 C 24.391 327.152,23.178 324.281,22.398 323.799 C 20.967 322.914,18.825 315.952,17.968 309.400 C 17.501 305.828,16.649 148.903,17.018 134.400 C 17.483 116.119,18.740 108.236,21.839 104.175 C 23.710 101.724,24.494 99.830,25.966 94.201 C 27.522 88.252,29.167 84.785,31.219 83.137 C 32.969 81.730,34.035 80.133,34.801 77.767 C 35.787 74.724,37.282 72.289,39.534 70.057 C 40.787 68.816,42.680 66.667,43.742 65.283 C 46.142 62.154,52.794 55.469,55.883 53.082 C 57.157 52.097,59.316 50.199,60.681 48.862 C 63.255 46.342,65.493 45.004,69.126 43.814 C 70.667 43.310,71.891 42.487,73.570 40.830 C 76.238 38.195,78.028 37.260,83.251 35.778 C 89.985 33.866,92.978 32.724,94.305 31.560 C 97.424 28.825,102.251 27.661,114.600 26.664 C 118.903 26.316,286.480 26.448,292.400 26.803 M235.721 160.343 C 233.054 162.299,233.200 160.242,233.200 195.938 C 233.200 228.298,233.189 228.758,232.359 230.927 C 231.596 232.920,228.851 236.400,228.041 236.400 C 226.825 236.400,223.826 232.809,222.182 229.383 C 220.827 226.560,220.066 225.459,219.026 224.816 C 216.772 223.423,215.452 221.580,212.650 215.916 C 210.681 211.935,209.413 209.924,207.790 208.208 C 206.338 206.671,204.892 204.486,203.517 201.747 C 202.228 199.179,200.635 196.734,199.321 195.304 C 197.902 193.761,196.245 191.150,194.306 187.400 C 192.319 183.557,190.754 181.103,189.317 179.577 C 187.937 178.110,186.473 175.850,185.015 172.935 C 183.770 170.446,182.186 167.924,181.388 167.159 C 180.609 166.411,179.353 164.951,178.597 163.914 C 177.806 162.829,176.326 161.515,175.111 160.818 L 173.000 159.608 162.400 159.616 C 150.321 159.625,145.249 160.263,143.393 162.006 L 142.400 162.939 142.400 223.408 C 142.400 283.455,142.406 283.881,143.203 284.603 C 146.546 287.628,165.054 287.992,171.009 285.150 L 173.000 284.200 173.000 250.461 L 173.000 216.721 174.600 215.330 C 179.647 210.943,183.796 212.099,186.386 218.614 C 188.549 224.056,190.469 227.385,192.456 229.143 C 194.035 230.539,194.895 231.852,196.779 235.743 C 198.251 238.782,199.780 241.293,200.866 242.452 C 201.820 243.470,204.025 246.886,205.766 250.042 C 208.175 254.408,209.440 256.244,211.057 257.721 C 213.118 259.605,213.865 260.864,216.445 266.798 C 216.970 268.006,217.962 269.626,218.649 270.398 C 220.466 272.438,224.227 278.340,225.659 281.400 C 227.875 286.136,231.639 287.200,246.173 287.200 C 256.544 287.200,258.381 286.852,260.529 284.479 C 261.295 283.632,260.762 163.118,259.988 162.185 C 259.764 161.916,258.863 161.198,257.985 160.590 L 256.389 159.483 246.894 159.298 L 237.400 159.112 235.721 160.343 " stroke="none" fill="#f6f9f9" fill-rule="evenodd"></path><path id="path1" d="M120.600 30.805 C 113.310 31.444,109.223 32.355,106.974 33.841 C 103.148 36.369,98.679 37.814,91.185 38.945 C 86.343 39.675,83.235 41.063,80.412 43.756 C 77.699 46.344,76.457 47.014,72.490 48.028 C 68.909 48.944,66.632 50.382,65.606 52.375 C 64.718 54.101,63.100 55.654,61.146 56.655 C 59.211 57.646,56.856 59.841,55.480 61.937 C 54.864 62.875,53.523 64.174,52.499 64.823 C 50.688 65.971,47.200 69.778,47.200 70.606 C 47.200 71.388,44.736 74.004,43.071 74.989 C 40.849 76.304,39.769 78.010,38.827 81.695 C 37.820 85.633,37.277 86.639,34.601 89.530 C 31.761 92.597,30.510 95.490,29.555 101.196 C 28.219 109.177,27.012 112.778,24.391 116.606 C 21.324 121.084,21.210 124.192,21.230 202.600 C 21.256 302.480,21.317 304.117,25.312 310.479 C 27.857 314.532,28.904 317.892,29.837 325.000 C 30.447 329.652,32.083 335.200,32.844 335.200 C 34.855 335.200,38.453 340.961,39.465 345.802 C 40.222 349.422,41.440 351.413,43.124 351.783 C 44.892 352.172,47.219 354.351,48.240 356.574 C 49.457 359.226,50.730 360.583,52.570 361.190 C 54.611 361.864,56.506 363.614,57.430 365.680 C 58.435 367.926,59.738 369.037,62.237 369.780 C 65.083 370.626,66.280 371.710,67.737 374.758 L 69.000 377.400 72.873 377.882 C 81.911 379.007,85.465 380.824,86.244 384.718 C 86.602 386.509,87.578 386.691,98.400 386.978 C 103.570 387.115,109.510 387.396,111.600 387.603 C 117.381 388.174,125.265 388.104,126.211 387.474 C 126.645 387.185,127.762 386.728,128.694 386.460 C 130.202 386.025,130.338 385.890,129.926 385.231 C 129.363 384.329,130.362 382.971,133.358 380.570 C 134.435 379.706,136.852 377.425,138.729 375.500 C 141.300 372.864,142.401 372.000,143.188 372.000 C 143.903 372.000,144.796 371.422,146.017 370.168 C 146.998 369.160,148.282 368.082,148.872 367.772 C 149.963 367.198,150.231 366.355,151.470 359.600 L 151.800 357.800 156.000 355.701 C 158.310 354.546,160.725 353.601,161.366 353.601 C 162.225 353.600,163.199 352.994,165.063 351.300 C 166.455 350.035,168.605 348.100,169.841 347.000 C 171.393 345.618,172.519 344.134,173.482 342.200 C 175.198 338.754,178.897 334.800,180.404 334.800 C 181.100 334.800,182.010 334.207,183.217 332.968 C 184.198 331.960,185.469 330.889,186.043 330.587 C 187.199 329.979,187.716 328.517,188.514 323.600 L 189.000 320.600 193.047 318.600 C 195.273 317.500,197.379 316.360,197.728 316.067 C 198.105 315.749,198.711 315.645,199.227 315.809 C 200.505 316.214,204.945 311.821,204.300 310.789 C 203.766 309.934,204.823 308.523,207.758 306.170 C 208.835 305.306,211.252 303.025,213.129 301.100 C 215.704 298.460,216.800 297.600,217.590 297.600 C 218.295 297.600,219.155 297.060,220.219 295.952 C 221.088 295.046,222.340 293.967,223.000 293.554 L 224.200 292.803 222.318 292.801 C 220.359 292.800,217.800 291.498,217.800 290.503 C 217.800 290.230,217.170 289.667,216.400 289.252 C 215.410 288.718,214.998 288.220,214.995 287.549 C 214.988 286.339,213.204 283.294,212.376 283.078 C 211.340 282.807,210.348 280.134,210.109 276.967 C 209.847 273.501,209.630 273.159,207.111 272.235 C 203.853 271.040,202.254 267.949,201.195 260.800 C 200.950 259.150,200.667 257.234,200.565 256.543 C 200.401 255.432,200.137 255.206,198.298 254.605 C 194.774 253.452,192.400 250.535,192.400 247.359 C 192.400 245.802,190.707 242.963,189.234 242.052 C 186.742 240.510,183.448 233.994,182.922 229.567 C 182.331 224.588,179.877 225.117,179.475 230.310 C 179.343 232.010,179.413 244.972,179.629 259.116 C 180.058 287.176,180.055 287.225,177.850 289.430 C 175.710 291.570,173.752 291.797,157.400 291.799 C 138.394 291.800,137.374 291.493,135.989 285.352 C 135.799 284.509,135.818 269.460,136.032 251.418 C 136.243 233.588,136.560 206.208,136.737 190.574 C 137.170 152.108,134.904 155.420,160.800 155.412 C 184.010 155.406,185.511 156.037,189.677 167.551 C 190.434 169.644,191.021 170.470,192.940 172.146 C 195.474 174.359,196.498 176.005,197.234 179.046 C 198.042 182.388,199.509 184.684,201.428 185.613 C 204.277 186.993,205.929 189.749,208.010 196.595 C 209.059 200.049,209.170 200.226,210.848 201.113 C 213.569 202.552,214.697 203.883,215.638 206.764 C 217.141 211.369,219.287 214.447,220.293 213.440 C 220.363 213.370,220.613 202.352,220.847 188.956 C 221.310 162.512,221.407 161.301,223.249 159.067 C 225.818 155.950,229.372 155.254,244.400 154.929 C 259.385 154.604,264.529 155.690,268.594 160.035 L 270.400 161.966 270.474 170.883 C 270.514 175.787,270.587 180.160,270.634 180.600 C 270.682 181.040,270.739 194.219,270.761 209.887 C 270.795 234.523,270.878 238.345,271.377 238.154 C 271.819 237.984,271.982 238.369,272.077 239.805 L 272.200 241.679 273.300 240.810 L 274.400 239.942 274.400 240.858 C 274.400 241.653,274.717 241.461,276.779 239.421 C 278.842 237.380,279.100 236.961,278.727 236.264 C 278.352 235.563,278.621 235.163,280.849 233.107 C 282.252 231.812,285.110 229.051,287.200 226.972 C 290.011 224.176,291.265 223.193,292.017 223.196 C 292.701 223.199,293.616 222.602,294.817 221.368 C 295.798 220.360,297.082 219.282,297.672 218.972 C 298.932 218.310,299.086 217.893,299.947 212.838 L 300.600 209.000 304.800 206.915 C 307.110 205.768,309.525 204.823,310.166 204.815 C 311.014 204.804,312.023 204.172,313.863 202.500 C 315.255 201.235,317.405 199.300,318.641 198.200 C 320.193 196.818,321.319 195.334,322.282 193.400 C 323.963 190.026,327.700 186.000,329.151 186.000 C 329.776 186.000,331.006 185.201,332.564 183.786 C 333.904 182.568,335.295 181.328,335.655 181.031 C 336.070 180.688,336.558 179.045,336.987 176.545 C 337.360 174.375,337.726 172.397,337.801 172.149 C 337.876 171.902,339.512 170.947,341.437 170.028 C 343.362 169.109,345.446 167.994,346.068 167.551 C 346.807 167.025,347.493 166.839,348.046 167.015 C 349.363 167.433,353.736 163.001,353.127 161.864 C 352.752 161.163,353.021 160.763,355.249 158.707 C 356.652 157.412,359.510 154.651,361.600 152.572 C 364.411 149.776,365.665 148.793,366.417 148.796 C 367.101 148.799,368.016 148.202,369.217 146.968 C 370.198 145.960,371.488 144.879,372.085 144.565 C 373.278 143.938,373.660 142.883,374.457 138.015 C 374.886 135.390,375.125 134.859,376.431 133.615 C 378.857 131.305,379.386 127.999,378.485 120.800 C 378.223 118.710,377.907 112.950,377.783 108.000 C 377.477 95.789,377.682 96.626,374.670 95.261 C 371.068 93.627,369.755 90.817,368.756 82.600 C 368.218 78.168,367.995 77.737,365.971 77.192 C 363.504 76.528,361.315 74.318,360.564 71.734 C 359.781 69.043,358.808 67.928,356.000 66.506 C 354.069 65.528,353.640 65.076,352.487 62.808 C 350.834 59.554,349.881 58.543,347.504 57.521 C 345.262 56.556,342.995 54.199,342.606 52.427 C 342.240 50.761,340.133 49.431,336.901 48.827 C 332.531 48.011,327.834 45.426,326.499 43.105 C 325.463 41.301,322.248 40.028,317.000 39.345 C 308.496 38.238,303.352 36.545,299.603 33.618 C 297.968 32.342,295.412 31.777,288.800 31.229 C 282.838 30.734,125.918 30.339,120.600 30.805 " stroke="none" fill="#0994c2" fill-rule="evenodd"></path><path id="path2" d="M343.117 53.800 C 343.806 55.131,345.696 56.711,347.611 57.558 C 349.908 58.573,350.853 59.591,352.487 62.808 C 353.640 65.076,354.069 65.528,356.000 66.506 C 358.808 67.928,359.781 69.043,360.564 71.734 C 361.315 74.318,363.504 76.528,365.971 77.192 C 367.995 77.737,368.218 78.168,368.756 82.600 C 369.755 90.817,371.068 93.627,374.670 95.261 C 377.682 96.626,377.477 95.789,377.783 108.000 C 377.907 112.950,378.223 118.710,378.485 120.800 C 379.386 127.999,378.857 131.305,376.431 133.615 C 375.125 134.859,374.886 135.390,374.457 138.015 C 373.660 142.883,373.278 143.938,372.085 144.565 C 371.488 144.879,370.198 145.960,369.217 146.968 C 368.016 148.202,367.101 148.799,366.417 148.796 C 365.665 148.793,364.411 149.776,361.600 152.572 C 359.510 154.651,356.652 157.412,355.249 158.707 C 353.021 160.763,352.752 161.163,353.127 161.864 C 353.736 163.001,349.363 167.433,348.046 167.015 C 347.493 166.839,346.807 167.025,346.068 167.551 C 345.446 167.994,343.362 169.109,341.437 170.028 C 339.512 170.947,337.876 171.902,337.801 172.149 C 337.726 172.397,337.360 174.375,336.987 176.545 C 336.558 179.045,336.070 180.688,335.655 181.031 C 335.295 181.328,333.904 182.568,332.564 183.786 C 331.006 185.201,329.776 186.000,329.151 186.000 C 327.700 186.000,323.963 190.026,322.282 193.400 C 321.319 195.334,320.193 196.818,318.641 198.200 C 317.405 199.300,315.255 201.235,313.863 202.500 C 312.023 204.172,311.014 204.804,310.166 204.815 C 309.525 204.823,307.110 205.768,304.800 206.915 L 300.600 209.000 299.947 212.838 C 299.086 217.893,298.932 218.310,297.672 218.972 C 297.082 219.282,295.798 220.360,294.817 221.368 C 293.616 222.602,292.701 223.199,292.017 223.196 C 291.265 223.193,290.011 224.176,287.200 226.972 C 285.110 229.051,282.252 231.812,280.849 233.107 C 278.621 235.163,278.352 235.563,278.727 236.264 C 279.100 236.961,278.842 237.380,276.779 239.421 C 274.717 241.461,274.400 241.653,274.400 240.858 L 274.400 239.942 273.300 240.810 L 272.200 241.679 272.078 239.839 C 271.964 238.119,271.373 237.372,271.018 238.500 C 270.931 238.775,270.758 249.168,270.632 261.595 L 270.405 284.191 269.251 285.795 C 266.243 289.977,260.529 291.002,242.000 290.684 C 225.207 290.396,223.989 290.035,221.065 284.472 C 220.260 282.939,219.118 281.261,218.529 280.742 C 215.294 277.900,214.518 276.807,212.725 272.578 C 211.704 270.170,210.643 267.430,210.368 266.490 C 209.986 265.185,209.420 264.458,207.980 263.424 C 205.596 261.711,204.283 259.989,203.234 257.200 C 202.208 254.473,200.609 252.050,198.878 250.600 C 197.094 249.105,194.365 244.341,192.790 239.972 C 191.699 236.945,191.239 236.185,189.848 235.104 C 187.252 233.086,186.862 232.521,184.182 226.900 C 181.370 221.001,181.576 221.230,180.313 222.592 C 179.020 223.986,179.172 227.712,180.473 226.534 C 181.532 225.576,182.606 226.906,182.922 229.567 C 183.448 233.994,186.742 240.510,189.234 242.052 C 190.707 242.963,192.400 245.802,192.400 247.359 C 192.400 250.535,194.774 253.452,198.298 254.605 C 200.137 255.206,200.401 255.432,200.565 256.543 C 200.667 257.234,200.950 259.150,201.195 260.800 C 202.254 267.949,203.853 271.040,207.111 272.235 C 209.630 273.159,209.847 273.501,210.109 276.967 C 210.348 280.134,211.340 282.807,212.376 283.078 C 213.204 283.294,214.988 286.339,214.995 287.549 C 214.998 288.220,215.410 288.718,216.400 289.252 C 217.170 289.667,217.800 290.230,217.800 290.503 C 217.800 291.498,220.359 292.800,222.318 292.801 L 224.200 292.803 223.000 293.554 C 222.340 293.967,221.088 295.046,220.219 295.952 C 219.155 297.060,218.295 297.600,217.590 297.600 C 216.800 297.600,215.704 298.460,213.129 301.100 C 211.252 303.025,208.835 305.306,207.758 306.170 C 204.823 308.523,203.766 309.934,204.300 310.789 C 204.945 311.821,200.505 316.214,199.227 315.809 C 198.711 315.645,198.105 315.749,197.728 316.067 C 197.379 316.360,195.273 317.500,193.047 318.600 L 189.000 320.600 188.514 323.600 C 187.716 328.517,187.199 329.979,186.043 330.587 C 185.469 330.889,184.198 331.960,183.217 332.968 C 182.010 334.207,181.100 334.800,180.404 334.800 C 178.897 334.800,175.198 338.754,173.482 342.200 C 172.519 344.134,171.393 345.618,169.841 347.000 C 168.605 348.100,166.455 350.035,165.063 351.300 C 163.199 352.994,162.225 353.600,161.366 353.601 C 160.725 353.601,158.310 354.546,156.000 355.701 L 151.800 357.800 151.470 359.600 C 150.231 366.355,149.963 367.198,148.872 367.772 C 148.282 368.082,146.998 369.160,146.017 370.168 C 144.796 371.422,143.903 372.000,143.188 372.000 C 142.401 372.000,141.300 372.864,138.729 375.500 C 136.852 377.425,134.435 379.706,133.358 380.570 C 130.362 382.971,129.363 384.329,129.926 385.231 C 130.338 385.890,130.202 386.025,128.694 386.460 C 127.762 386.728,126.645 387.185,126.211 387.474 C 125.265 388.104,117.381 388.174,111.600 387.603 C 109.510 387.396,103.570 387.115,98.400 386.978 C 87.578 386.691,86.602 386.509,86.244 384.718 C 85.465 380.824,81.911 379.007,72.873 377.882 L 69.000 377.400 67.737 374.758 C 66.280 371.710,65.083 370.626,62.237 369.780 C 59.738 369.037,58.435 367.926,57.430 365.680 C 56.506 363.614,54.611 361.864,52.570 361.190 C 50.740 360.586,49.465 359.235,48.239 356.600 C 47.727 355.500,46.802 354.150,46.184 353.600 C 45.076 352.614,45.077 352.622,46.305 354.200 C 46.990 355.080,47.671 356.295,47.818 356.901 C 48.128 358.171,51.065 361.252,53.634 363.004 C 54.652 363.697,55.739 364.894,56.200 365.828 C 57.136 367.723,59.555 369.983,61.746 371.010 C 63.694 371.923,65.879 374.148,66.192 375.537 C 66.548 377.114,68.965 378.589,72.758 379.545 C 76.530 380.495,79.285 382.076,81.506 384.565 C 83.431 386.722,86.161 387.867,91.615 388.803 C 98.017 389.901,102.014 391.089,104.439 392.614 C 112.634 397.766,111.008 397.682,193.072 397.209 C 297.898 396.606,293.286 396.782,297.780 393.213 C 301.248 390.459,306.291 389.002,316.450 387.822 C 322.121 387.162,324.129 386.420,324.832 384.723 C 326.060 381.759,330.770 379.183,336.690 378.239 C 340.552 377.623,340.951 377.356,341.789 374.834 C 342.631 372.298,345.686 369.600,347.716 369.600 C 348.495 369.600,351.168 367.508,351.185 366.884 C 351.243 364.829,354.037 361.580,356.422 360.793 C 358.453 360.123,359.752 358.662,360.575 356.125 C 361.381 353.639,363.674 351.373,365.783 350.977 C 367.413 350.671,368.800 349.176,368.800 347.725 C 368.800 342.490,371.825 336.274,375.390 334.185 C 377.392 333.012,378.179 330.989,378.573 326.000 C 379.259 317.340,381.522 310.022,384.782 305.928 C 385.672 304.810,386.400 303.694,386.399 303.448 C 386.399 303.201,386.663 300.300,386.986 297.000 C 387.750 289.192,388.678 139.255,388.012 131.200 C 387.231 121.757,386.519 118.691,384.338 115.384 C 382.154 112.071,380.850 108.096,379.643 101.076 C 378.746 95.863,377.261 92.117,375.667 91.045 C 373.252 89.422,370.804 84.945,369.974 80.635 C 369.491 78.124,368.091 76.301,365.747 75.131 C 363.792 74.154,362.622 72.858,361.275 70.173 C 360.473 68.575,357.570 65.600,356.813 65.600 C 356.094 65.600,353.556 63.082,352.819 61.638 C 351.939 59.915,349.495 57.871,347.230 56.965 C 346.323 56.603,344.934 55.562,344.142 54.653 C 343.350 53.744,342.889 53.360,343.117 53.800 M243.100 155.099 C 245.575 155.169,249.625 155.169,252.100 155.099 C 254.575 155.028,252.550 154.971,247.600 154.971 C 242.650 154.971,240.625 155.028,243.100 155.099 M229.976 155.792 C 221.289 157.255,221.410 156.814,220.844 189.098 L 220.415 213.595 221.607 215.476 C 222.263 216.510,222.800 217.613,222.800 217.927 C 222.800 218.869,223.954 217.685,224.642 216.037 C 226.005 212.775,226.099 211.184,226.349 187.174 L 226.600 162.949 228.312 160.904 C 229.254 159.779,230.828 158.470,231.810 157.995 C 232.792 157.520,233.708 156.949,233.846 156.726 C 233.983 156.503,234.659 156.076,235.348 155.776 L 236.600 155.231 234.800 155.257 C 233.810 155.271,231.639 155.511,229.976 155.792 M136.681 196.400 C 136.505 212.790,136.200 239.165,136.003 255.011 C 135.803 271.096,135.796 284.495,135.988 285.345 C 137.375 291.494,138.390 291.800,157.400 291.799 C 181.430 291.796,180.930 292.318,179.622 268.600 C 179.368 263.992,179.327 264.607,179.259 274.000 C 179.140 290.448,179.006 290.594,163.600 290.932 C 145.781 291.323,140.514 290.127,137.954 285.109 C 137.173 283.580,137.160 282.986,137.389 259.672 C 137.518 246.542,137.483 220.230,137.311 201.200 L 136.999 166.600 136.681 196.400 " stroke="none" fill="#0cbacc" fill-rule="evenodd"></path><path id="path3" d="M114.600 26.634 C 113.720 26.721,111.085 26.978,108.744 27.204 C 101.510 27.904,96.882 29.300,94.305 31.560 C 92.978 32.724,89.985 33.866,83.251 35.778 C 78.028 37.260,76.238 38.195,73.570 40.830 C 71.891 42.487,70.667 43.310,69.126 43.814 C 65.493 45.004,63.255 46.342,60.681 48.862 C 59.316 50.199,57.157 52.097,55.883 53.082 C 52.794 55.469,46.142 62.154,43.742 65.283 C 42.680 66.667,40.787 68.816,39.534 70.057 C 37.282 72.289,35.787 74.724,34.801 77.767 C 34.035 80.133,32.969 81.730,31.219 83.137 C 29.167 84.785,27.522 88.252,25.966 94.201 C 24.495 99.825,23.710 101.725,21.847 104.166 C 19.600 107.109,18.444 111.692,17.600 121.000 C 17.364 123.604,17.205 142.787,17.211 168.000 C 17.220 203.866,17.360 225.094,18.025 291.600 C 18.078 296.810,18.369 301.542,19.000 307.400 C 19.613 313.098,20.863 317.255,23.101 321.039 C 23.765 322.161,24.440 323.511,24.603 324.039 C 24.765 324.568,25.036 325.180,25.205 325.400 C 25.374 325.620,25.984 327.539,26.559 329.665 C 28.356 336.298,29.825 339.376,32.754 342.644 C 33.747 343.752,35.376 346.421,36.510 348.800 C 38.175 352.292,38.967 353.438,41.207 355.600 C 42.689 357.030,45.268 359.854,46.939 361.875 C 49.968 365.540,55.387 370.590,58.800 372.929 C 59.790 373.607,60.801 374.351,61.046 374.581 C 66.319 379.535,67.673 380.440,71.860 381.812 C 74.174 382.570,75.624 383.335,76.860 384.452 C 79.560 386.893,85.414 389.550,89.400 390.144 C 91.748 390.494,93.204 390.785,95.000 391.265 C 95.880 391.500,96.780 391.722,97.000 391.758 C 97.220 391.793,97.625 391.963,97.900 392.135 C 98.175 392.307,98.400 392.355,98.400 392.241 C 98.400 392.128,99.120 392.290,100.000 392.600 C 100.880 392.910,101.600 393.070,101.600 392.954 C 101.600 392.838,101.885 393.027,102.232 393.375 C 102.580 393.723,103.030 393.905,103.232 393.780 C 103.435 393.655,103.600 393.754,103.600 394.000 C 103.600 394.246,103.761 394.348,103.958 394.226 C 104.155 394.104,104.424 394.285,104.555 394.628 C 104.687 394.970,104.976 395.139,105.197 395.002 C 105.419 394.865,105.600 394.954,105.600 395.200 C 105.600 395.446,105.768 395.544,105.972 395.417 C 106.177 395.291,106.460 395.373,106.600 395.600 C 106.740 395.827,106.988 395.931,107.149 395.831 C 107.311 395.732,108.153 395.807,109.022 395.999 C 109.890 396.191,111.680 396.443,113.000 396.558 C 115.365 396.765,115.353 396.757,112.153 396.052 C 110.368 395.658,108.298 394.956,107.553 394.493 C 101.893 390.965,99.747 390.198,91.661 388.810 C 86.162 387.867,83.435 386.727,81.506 384.565 C 79.285 382.076,76.530 380.495,72.758 379.545 C 68.965 378.589,66.548 377.114,66.192 375.537 C 65.879 374.148,63.694 371.923,61.746 371.010 C 59.555 369.983,57.136 367.723,56.200 365.828 C 55.739 364.894,54.652 363.697,53.634 363.004 C 51.026 361.226,48.091 358.127,47.812 356.857 C 47.448 355.197,45.454 353.008,43.450 352.066 C 41.115 350.968,40.284 349.660,39.470 345.802 C 38.448 340.954,34.852 335.200,32.844 335.200 C 32.083 335.200,30.447 329.652,29.837 325.000 C 28.904 317.892,27.857 314.532,25.312 310.479 C 21.317 304.117,21.256 302.480,21.230 202.600 C 21.210 124.192,21.324 121.084,24.391 116.606 C 27.012 112.778,28.219 109.177,29.555 101.196 C 30.510 95.490,31.761 92.597,34.601 89.530 C 37.277 86.639,37.820 85.633,38.827 81.695 C 39.769 78.010,40.849 76.304,43.071 74.989 C 44.736 74.004,47.200 71.388,47.200 70.606 C 47.200 69.778,50.688 65.971,52.499 64.823 C 53.523 64.174,54.864 62.875,55.480 61.937 C 56.856 59.841,59.211 57.646,61.146 56.655 C 63.100 55.654,64.718 54.101,65.606 52.375 C 66.632 50.382,68.909 48.944,72.490 48.028 C 76.457 47.014,77.699 46.344,80.412 43.756 C 83.235 41.063,86.343 39.675,91.185 38.945 C 98.673 37.815,103.141 36.371,106.974 33.843 C 112.280 30.344,114.536 30.270,205.800 30.581 C 293.939 30.883,296.192 30.956,299.603 33.618 C 303.352 36.545,308.496 38.238,317.000 39.345 C 322.248 40.028,325.463 41.301,326.499 43.105 C 327.895 45.533,333.314 48.369,337.800 49.018 C 340.226 49.369,341.908 50.481,342.630 52.211 C 343.486 54.259,345.223 56.055,347.187 56.923 C 349.677 58.024,351.942 59.920,352.819 61.638 C 353.556 63.082,356.094 65.600,356.813 65.600 C 357.570 65.600,360.473 68.575,361.275 70.173 C 362.622 72.858,363.792 74.154,365.747 75.131 C 368.091 76.301,369.491 78.124,369.974 80.635 C 370.804 84.945,373.252 89.422,375.667 91.045 C 377.261 92.117,378.746 95.863,379.643 101.076 C 380.847 108.079,382.172 112.136,384.285 115.286 C 386.216 118.163,387.558 122.956,387.588 127.076 C 387.595 127.998,387.763 128.853,387.962 128.977 C 388.477 129.295,388.077 124.963,387.133 120.000 C 386.693 117.690,386.318 115.575,386.300 115.300 C 386.282 115.025,386.106 114.800,385.910 114.800 C 385.713 114.800,385.665 114.619,385.802 114.397 C 385.939 114.176,385.770 113.887,385.428 113.755 C 385.085 113.624,384.904 113.355,385.026 113.158 C 385.148 112.961,385.087 112.800,384.890 112.800 C 384.694 112.800,384.514 112.575,384.490 112.300 C 384.438 111.696,384.204 110.811,383.883 110.000 C 383.299 108.525,381.657 102.868,381.444 101.600 C 380.917 98.451,380.736 97.688,379.928 95.200 C 378.560 90.984,377.290 88.397,375.760 86.703 C 374.371 85.166,372.412 81.538,372.404 80.489 C 372.394 79.166,369.697 74.846,367.561 72.730 C 366.263 71.443,365.200 70.222,365.200 70.015 C 365.200 69.809,364.974 69.496,364.699 69.320 C 364.423 69.144,363.706 68.280,363.106 67.400 C 362.042 65.840,353.878 57.468,347.073 50.958 C 344.283 48.289,342.921 47.343,339.374 45.606 C 335.660 43.787,334.262 42.855,331.844 40.583 C 330.538 39.356,322.657 36.303,318.505 35.415 C 317.792 35.263,317.106 34.972,316.981 34.769 C 316.855 34.566,316.509 34.400,316.212 34.400 C 315.914 34.400,314.415 33.676,312.881 32.792 C 308.503 30.268,304.400 29.039,297.600 28.215 C 296.610 28.095,295.080 27.900,294.200 27.782 C 289.398 27.138,120.423 26.058,114.600 26.634 M388.114 132.200 C 388.117 133.300,388.195 133.703,388.287 133.095 C 388.379 132.486,388.377 131.586,388.282 131.095 C 388.187 130.603,388.111 131.100,388.114 132.200 M146.800 155.572 C 141.783 155.988,139.072 157.495,137.780 160.587 C 137.150 162.094,136.939 216.203,137.548 220.000 C 137.813 221.655,138.354 192.336,138.445 171.341 L 138.483 162.481 139.942 161.080 C 143.037 158.106,142.594 158.171,157.833 158.440 L 171.455 158.680 174.351 160.371 C 176.268 161.491,177.706 162.693,178.609 163.931 C 179.358 164.959,180.609 166.411,181.388 167.159 C 182.186 167.924,183.770 170.446,185.015 172.935 C 186.473 175.850,187.937 178.110,189.317 179.577 C 190.754 181.103,192.319 183.557,194.306 187.400 C 196.245 191.150,197.902 193.761,199.321 195.304 C 200.635 196.734,202.228 199.179,203.517 201.747 C 204.892 204.486,206.338 206.671,207.790 208.208 C 209.413 209.924,210.681 211.935,212.650 215.916 C 216.035 222.759,219.711 226.906,220.842 225.158 C 222.094 223.224,223.115 218.577,222.573 217.277 C 221.710 215.207,220.433 213.623,219.420 213.369 C 218.324 213.094,216.882 210.575,215.638 206.764 C 214.697 203.883,213.569 202.552,210.848 201.113 C 209.170 200.226,209.059 200.049,208.010 196.595 C 205.929 189.749,204.277 186.993,201.428 185.613 C 199.509 184.684,198.042 182.388,197.234 179.046 C 196.498 176.005,195.474 174.359,192.940 172.146 C 191.021 170.470,190.434 169.644,189.677 167.551 C 185.637 156.384,183.762 155.516,163.400 155.380 C 156.140 155.331,148.670 155.418,146.800 155.572 M235.224 155.901 C 232.353 157.360,233.084 157.599,240.467 157.615 C 251.585 157.639,254.865 158.188,257.914 160.534 L 260.400 162.447 260.412 166.523 C 260.419 168.766,260.590 196.054,260.793 227.165 L 261.162 283.730 260.215 284.855 C 259.694 285.474,259.156 286.489,259.020 287.110 C 258.883 287.730,258.321 288.725,257.770 289.319 L 256.768 290.400 257.749 290.400 C 262.455 290.400,267.530 288.298,269.425 285.564 L 270.593 283.878 270.651 232.439 C 270.683 204.148,270.594 176.643,270.454 171.318 L 270.200 161.636 268.600 159.983 C 264.690 155.945,261.443 155.213,247.400 155.207 C 237.903 155.202,236.434 155.286,235.224 155.901 M173.771 216.034 C 173.020 216.865,173.004 217.755,173.155 250.236 C 173.271 275.283,173.194 283.726,172.843 284.149 C 172.586 284.458,171.256 285.129,169.888 285.639 C 168.519 286.149,166.621 287.159,165.669 287.883 C 163.647 289.422,164.097 289.341,157.200 289.402 C 142.437 289.533,140.327 289.925,150.000 290.741 C 162.438 291.791,174.736 290.764,176.911 288.493 C 179.310 285.988,179.230 287.097,179.388 254.167 L 179.532 224.012 178.175 222.506 C 176.889 221.078,175.790 218.563,175.522 216.431 C 175.359 215.140,174.711 214.993,173.771 216.034 M140.400 288.196 C 140.400 288.470,142.849 289.684,143.032 289.501 C 143.119 289.414,142.562 289.044,141.795 288.678 C 141.028 288.312,140.400 288.095,140.400 288.196 M116.905 397.087 C 117.514 397.179,118.414 397.177,118.905 397.082 C 119.397 396.987,118.900 396.911,117.800 396.914 C 116.700 396.917,116.297 396.995,116.905 397.087 " stroke="none" fill="#669ec9" fill-rule="evenodd"></path><path id="path4" d="M235.200 26.820 C 275.519 27.076,289.766 27.318,294.268 27.825 C 304.231 28.945,307.913 29.928,312.881 32.792 C 314.415 33.676,315.914 34.400,316.212 34.400 C 316.509 34.400,316.855 34.566,316.981 34.769 C 317.106 34.972,317.792 35.263,318.505 35.415 C 325.315 36.871,330.950 39.545,334.563 43.036 C 334.811 43.275,336.965 44.426,339.349 45.594 C 342.923 47.344,344.278 48.284,347.073 50.958 C 353.878 57.468,362.042 65.840,363.106 67.400 C 363.706 68.280,364.423 69.144,364.699 69.320 C 364.974 69.496,365.200 69.809,365.200 70.015 C 365.200 70.222,366.263 71.443,367.561 72.730 C 369.697 74.846,372.394 79.166,372.404 80.489 C 372.412 81.538,374.371 85.166,375.760 86.703 C 377.290 88.397,378.560 90.984,379.928 95.200 C 380.736 97.688,380.917 98.451,381.444 101.600 C 381.657 102.868,383.299 108.525,383.883 110.000 C 384.204 110.811,384.438 111.696,384.490 112.300 C 384.514 112.575,384.694 112.800,384.890 112.800 C 385.087 112.800,385.148 112.961,385.026 113.158 C 384.904 113.355,385.085 113.624,385.428 113.755 C 385.770 113.887,385.939 114.176,385.802 114.397 C 385.665 114.619,385.713 114.800,385.910 114.800 C 386.106 114.800,386.281 115.025,386.299 115.300 C 386.317 115.575,386.690 117.600,387.127 119.800 C 387.564 122.000,388.038 125.960,388.180 128.600 C 388.698 138.258,387.610 290.870,386.978 297.152 C 386.660 300.315,386.400 303.127,386.400 303.399 C 386.400 303.672,385.672 304.810,384.782 305.928 C 381.522 310.022,379.259 317.340,378.573 326.000 C 378.179 330.989,377.392 333.012,375.390 334.185 C 371.825 336.274,368.800 342.490,368.800 347.725 C 368.800 349.176,367.413 350.671,365.783 350.977 C 363.674 351.373,361.381 353.639,360.575 356.125 C 359.752 358.662,358.453 360.123,356.422 360.793 C 354.037 361.580,351.243 364.829,351.185 366.884 C 351.168 367.508,348.495 369.600,347.716 369.600 C 345.686 369.600,342.631 372.298,341.789 374.834 C 340.951 377.356,340.552 377.623,336.690 378.239 C 330.770 379.183,326.060 381.759,324.832 384.723 C 324.129 386.420,322.121 387.162,316.450 387.822 C 306.291 389.002,301.248 390.459,297.780 393.213 C 293.786 396.385,294.686 396.326,243.200 396.764 C 128.493 397.740,116.794 397.673,109.022 395.991 C 108.153 395.803,107.311 395.732,107.149 395.831 C 106.988 395.931,106.740 395.827,106.600 395.600 C 106.460 395.373,106.177 395.291,105.972 395.417 C 105.768 395.544,105.600 395.446,105.600 395.200 C 105.600 394.954,105.419 394.865,105.197 395.002 C 104.976 395.139,104.687 394.970,104.555 394.628 C 104.424 394.285,104.155 394.104,103.958 394.226 C 103.761 394.348,103.600 394.246,103.600 394.000 C 103.600 393.754,103.435 393.655,103.232 393.780 C 103.030 393.905,102.580 393.723,102.232 393.375 C 101.885 393.027,101.600 392.838,101.600 392.954 C 101.600 393.070,100.877 392.910,99.994 392.598 C 99.111 392.286,98.301 392.024,98.194 392.016 C 98.087 392.007,97.955 391.986,97.900 391.969 C 97.845 391.953,97.530 391.883,97.200 391.816 C 96.870 391.748,95.880 391.500,95.000 391.265 C 93.204 390.785,91.748 390.494,89.400 390.144 C 85.414 389.550,79.560 386.893,76.860 384.452 C 75.624 383.335,74.174 382.570,71.860 381.812 C 67.673 380.440,66.319 379.535,61.046 374.581 C 60.801 374.351,59.790 373.607,58.800 372.929 C 55.387 370.590,49.968 365.540,46.939 361.875 C 45.268 359.854,42.689 357.030,41.207 355.600 C 38.967 353.438,38.175 352.292,36.510 348.800 C 35.376 346.421,33.747 343.752,32.754 342.644 C 29.840 339.393,28.365 336.316,26.582 329.770 C 26.018 327.701,25.298 325.511,24.981 324.904 C 24.664 324.297,24.404 323.673,24.402 323.518 C 24.401 323.362,23.836 322.282,23.148 321.118 C 19.447 314.860,18.165 306.737,17.984 288.400 C 17.935 283.450,17.767 266.890,17.610 251.600 C 17.338 224.996,17.329 225.564,17.404 264.800 C 17.457 292.727,17.627 306.884,17.937 309.200 C 18.849 316.022,20.953 322.905,22.398 323.799 C 23.178 324.281,24.391 327.152,25.638 331.466 C 27.891 339.264,28.671 340.956,31.430 344.034 C 33.060 345.851,34.258 347.642,34.784 349.049 C 36.211 352.862,37.245 354.526,39.976 357.400 C 41.440 358.940,43.646 361.473,44.879 363.030 C 47.625 366.496,52.983 371.840,55.977 374.098 C 57.199 375.021,59.554 377.049,61.210 378.606 C 63.757 381.001,64.848 381.701,68.311 383.162 C 71.423 384.476,72.861 385.345,74.317 386.793 C 77.066 389.528,78.275 390.060,89.219 393.348 C 91.132 393.923,93.735 395.084,95.129 395.986 C 98.763 398.335,102.678 399.451,110.800 400.455 C 115.925 401.088,261.927 401.409,282.000 400.831 C 300.053 400.311,306.605 399.442,311.400 396.932 C 316.968 394.016,318.961 393.182,323.048 392.059 C 329.114 390.391,331.412 389.298,334.342 386.684 C 336.175 385.048,337.822 384.049,340.521 382.936 C 343.538 381.691,344.668 380.963,346.800 378.888 C 348.230 377.496,350.750 375.341,352.400 374.099 C 356.005 371.385,362.377 365.014,364.974 361.526 C 366.009 360.137,368.061 357.740,369.534 356.200 C 371.745 353.890,372.480 352.756,373.734 349.721 C 374.847 347.025,375.850 345.373,377.484 343.542 C 380.090 340.621,381.180 338.337,382.873 332.248 C 384.253 327.284,385.363 324.554,386.939 322.244 C 389.897 317.908,391.070 310.294,391.629 291.800 C 392.198 272.972,391.892 125.121,391.274 120.200 C 390.188 111.553,389.138 107.806,386.837 104.361 C 385.855 102.889,384.778 100.515,384.158 98.451 C 380.873 87.523,380.417 86.476,377.766 83.787 C 376.681 82.686,375.429 80.813,374.737 79.255 C 372.395 73.979,371.780 72.966,369.638 70.850 C 368.441 69.667,366.659 67.610,365.679 66.278 C 363.300 63.047,357.328 56.912,353.829 54.105 C 352.273 52.857,349.712 50.611,348.138 49.113 C 345.441 46.548,344.497 45.984,339.200 43.770 C 338.210 43.357,336.410 42.091,335.200 40.958 C 332.435 38.370,330.864 37.581,324.946 35.811 C 317.989 33.731,316.867 33.275,314.000 31.366 C 307.092 26.766,301.211 26.386,238.200 26.472 L 190.600 26.537 235.200 26.820 M16.987 156.000 C 16.987 167.990,17.038 172.895,17.100 166.900 C 17.162 160.905,17.162 151.095,17.100 145.100 C 17.038 139.105,16.987 144.010,16.987 156.000 M231.504 158.140 C 230.681 158.547,229.241 159.795,228.304 160.914 L 226.600 162.949 226.349 187.174 C 226.191 202.335,225.936 212.000,225.668 213.005 C 225.097 215.141,224.100 217.491,223.645 217.772 C 223.443 217.897,222.882 219.304,222.397 220.899 C 221.913 222.495,221.281 224.256,220.993 224.813 C 219.941 226.849,225.750 236.400,228.041 236.400 C 228.851 236.400,231.596 232.920,232.359 230.927 C 233.189 228.757,233.200 228.300,233.200 195.818 C 233.200 158.751,232.922 162.026,236.244 159.973 C 237.641 159.109,237.898 159.093,247.062 159.289 C 253.466 159.426,256.319 159.359,256.040 159.080 C 254.706 157.746,233.911 156.950,231.504 158.140 M142.806 158.939 C 142.033 159.346,140.736 160.317,139.924 161.097 L 138.448 162.515 138.413 179.655 C 138.393 189.081,138.300 197.020,138.205 197.297 C 138.111 197.574,137.840 217.100,137.603 240.690 C 137.104 290.534,136.715 286.155,141.864 288.743 C 144.440 290.038,162.696 289.824,164.882 288.473 C 167.162 287.064,167.602 286.333,165.949 286.700 C 160.777 287.850,145.683 286.524,143.388 284.719 L 142.400 283.942 142.400 223.441 L 142.400 162.939 143.393 162.006 C 145.241 160.271,150.321 159.628,162.400 159.600 C 170.423 159.582,172.812 159.467,172.228 159.128 C 170.689 158.234,144.466 158.066,142.806 158.939 M178.700 212.965 C 176.086 213.668,175.180 214.556,175.456 216.145 C 175.922 218.833,176.856 221.057,178.056 222.337 L 179.309 223.674 180.271 222.637 C 181.582 221.223,181.361 220.982,184.182 226.900 C 186.862 232.521,187.252 233.086,189.848 235.104 C 191.239 236.185,191.699 236.945,192.790 239.972 C 194.365 244.341,197.094 249.105,198.878 250.600 C 200.609 252.050,202.208 254.473,203.234 257.200 C 204.283 259.989,205.596 261.711,207.980 263.424 C 209.420 264.458,209.986 265.185,210.368 266.490 C 210.643 267.430,211.704 270.170,212.725 272.578 C 214.518 276.807,215.294 277.900,218.529 280.742 C 219.118 281.261,220.260 282.939,221.065 284.472 C 224.019 290.092,225.118 290.406,242.800 290.687 L 256.200 290.900 257.347 289.750 C 259.855 287.235,260.102 285.055,257.744 286.249 C 254.832 287.722,238.460 287.696,232.594 286.209 C 227.648 284.954,227.165 284.619,225.659 281.400 C 224.227 278.340,220.466 272.438,218.649 270.398 C 217.962 269.626,216.970 268.006,216.445 266.798 C 213.865 260.864,213.118 259.605,211.057 257.721 C 209.440 256.244,208.175 254.408,205.766 250.042 C 204.025 246.886,201.820 243.470,200.866 242.452 C 199.780 241.293,198.251 238.782,196.779 235.743 C 194.895 231.852,194.035 230.539,192.456 229.143 C 190.469 227.385,188.549 224.056,186.386 218.614 C 185.403 216.142,182.232 212.377,181.174 212.427 C 180.858 212.442,179.745 212.684,178.700 212.965 " stroke="none" fill="#41d9ee" fill-rule="evenodd"></path></g></svg>